<?xml version="1.0" encoding="utf-8"?>
<!-- Generator: Adobe Illustrator 16.0.0, SVG Export Plug-In . SVG Version: 6.00 Build 0)  -->
<svg version="1.2" baseProfile="tiny" id="Layer_1" xmlns="http://www.w3.org/2000/svg" xmlns:xlink="http://www.w3.org/1999/xlink"
	 x="0px" y="0px" width="761px" height="200px" viewBox="0 0 761 200" xml:space="preserve">
<rect fill="none" width="761" height="200"/>
<g>
	<path fill="#F6861F" d="M9.1,64c12.1,0,28.3-2.8,35.3,9.7c5.2,9.2,5.3,21.8,3.8,32c-1.4,9.3-5.7,18.5-15.6,20.9
		c-5.9,1.4-12.5,0.7-18.5,0.7c-3.9,0-5,1.2-5-2.6c0-11.6,0-23.2,0-34.8C9.1,81.3,9.1,72.6,9.1,64z M26.1,122.6
		c11.5,0,16.2-9.6,16.8-19.9c0.4-7.1,0.7-15.1-1.3-21.9c-2.6-8.9-9.1-12.1-17.8-12.1c-2.9,0-5.8,0-8.7,0c-1,0-0.6,0.7-0.6,1.6
		c0,11.6,0,23.2,0,34.7c0,5.1,0,10.2,0,15.3c0,0.3-0.2,2,0,2.3c0.8,0.8,6.6,0,7.8,0C23.6,122.6,24.9,122.6,26.1,122.6z"/>
	<path fill="#F6861F" d="M82.4,128.4c-10.3,0-18-6.4-20.2-16.4c-2.1-9.7-0.8-22.5,7.8-28.8c9.3-6.9,23.5-4.1,29,6.1
		c2.4,4.4,3,9.3,3,14.2c0,1.9-0.2,1.5-1.9,1.5c-10.8,0-21.5,0-32.3,0c-1.7,0-0.9,2.2-0.9,3.6c0.2,4.6,1.9,9.3,5.6,12.3
		c8,6.4,20.4,2.8,24.3-6.3c1.1,0.7,2.3,1.4,3.4,2.1c1.3,0.8-1.9,4.5-2.6,5.4C93.8,126.5,88.1,128.4,82.4,128.4z M81.9,83.8
		c-5,0-9.7,2.3-12.4,6.5c-0.6,1-4,10.7-2.6,10.7c5,0,10.1,0,15.1,0c4.7,0,9.5,0,14.2,0c1.2,0-1.4-9.2-1.9-10.1
		C91.9,86.2,87.2,83.8,81.9,83.8z"/>
	<path fill="#F6861F" d="M116.5,122.8c5.1,0,10.3,0,15.4,0c0.9,0,1.7,0.4,1.7-0.6c0-1.5,0-3,0-4.5c0-12.5,0-25.1,0-37.6
		c0-4.6,0-9.2,0-13.8c0-0.3,0.2-1.5-0.2-1.5c-2.6,0-5.3,0-7.9,0c-2.7,0-5.4,0-8.2,0c-1.3,0-1.4-3.9-0.8-4.5c0.6-0.5,4.1,0,4.8,0
		c3.5,0,6.9,0,10.4,0c2.3,0,7-1.5,7,1.4c0,4.4,0,8.7,0,13.1c0,13,0,25.9,0,38.9c0,3,0,6.1,0,9.1c0,0.1,13,0.1,14.2,0.1
		c2.4,0,2.8-0.6,2.8,1.9c0,2.1,0.6,2.6-1.4,2.6c-5.5,0-11,0-16.5,0c-5.7,0-11.5,0-17.2,0c-1.3,0-2.6,0-3.9,0
		C116.2,127.3,116.5,123.5,116.5,122.8z"/>
	<path fill="#F6861F" d="M206.7,127.3c-4.5,0-6.3-3.2-6.1-7.3c-1.3,0.5-2.4,3.4-3.7,4.6c-2.4,2.2-5.4,3.3-8.6,3.7
		c-5.9,0.6-13.1-0.5-16.6-5.9c-3.2-4.8-2.9-12.8,1.5-16.8c4.2-3.8,10.6-4.3,16-4.3c3.4,0,6.7,0,10.1,0c2.1,0,1.1-3.9,1.1-5.7
		c0-14.3-19.9-15.3-25.6-4c-0.7-0.5-3.4-1.8-3.5-2.5c1.3-2.9,3.5-5.2,6.1-6.8c5.5-3.5,14-3.8,19.9-1.1c9.1,4.1,8.3,13.8,8.3,22.1
		c0,4.3,0,8.6,0,12.8c0,0.9-0.7,6,0,6.7c1.6,1.6,7-2.1,7,1.2c0,0.9,0.5,3.4-0.5,3.4C210.3,127.3,208.5,127.3,206.7,127.3z
		 M186.3,124.1c4.5,0,9.6-1.3,12.4-5.1c1.8-2.4,1.7-5.1,1.7-7.9c0-0.5,0.1-5.9-0.1-5.9c-2.3,0-4.6,0-6.9,0c-5.6,0-14.4-1-17.5,4.8
		c-1.2,2.3-1.2,6.5-0.2,8.9C177.4,123,182.4,124.1,186.3,124.1z"/>
	<path fill="#F6861F" d="M227.4,80.5c0.9,0,5.2-0.5,5.2,0.4c0,2.3,0,4.6,0,7c3.2-2.7,4.6-6.3,9.2-7.7c4.4-1.4,9.7-1,13.9,1.1
		c8.3,4.2,10.3,14.2,10.3,22.7s-2,18.5-10.3,22.7c-4.1,2.1-9.5,2.4-13.9,1.1c-4.6-1.4-6.1-5-9.2-7.7c0,8.4,0,16.8,0,25.2
		c0,0.2-5.2,1.5-5.2-0.6c0-3.3,0-6.6,0-9.9C227.4,116.6,227.4,98.6,227.4,80.5z M245.6,123.9c13.2,0,14.8-11.8,14.8-22.2
		c0-5.1-0.8-10.4-4.7-14.1c-4.4-4.2-12-4.7-17.3-2c-7.7,3.9-5.9,13.6-5.9,20.8c0,2.7-0.2,5.4,0.1,8.1
		C233.3,120.8,239.8,123.9,245.6,123.9z"/>
	<path fill="#F6861F" d="M315.6,127.3c-4.5,0-6.3-3.2-6.1-7.3c-1.3,0.5-2.4,3.4-3.7,4.6c-2.4,2.2-5.4,3.3-8.6,3.7
		c-5.9,0.6-13.1-0.5-16.6-5.9c-3.2-4.8-2.9-12.8,1.5-16.8c4.2-3.8,10.6-4.3,16-4.3c3.4,0,6.7,0,10.1,0c2.1,0,1.1-3.9,1.1-5.7
		c0-14.3-19.9-15.3-25.6-4c-0.7-0.5-3.4-1.8-3.5-2.5c1.3-2.9,3.5-5.2,6.1-6.8c5.5-3.5,14-3.8,19.9-1.1c9.1,4.1,8.3,13.8,8.3,22.1
		c0,4.3,0,8.6,0,12.8c0,0.9-0.7,6,0,6.7c1.6,1.6,7-2.1,7,1.2c0,0.9,0.5,3.4-0.5,3.4C319.1,127.3,317.3,127.3,315.6,127.3z
		 M295.2,124.1c4.5,0,9.6-1.3,12.4-5.1c1.8-2.4,1.7-5.1,1.7-7.9c0-0.5,0.1-5.9-0.1-5.9c-2.3,0-4.6,0-6.9,0c-5.6,0-14.4-1-17.5,4.8
		c-1.2,2.3-1.2,6.5-0.2,8.9C286.2,123,291.2,124.1,295.2,124.1z"/>
	<path fill="#F6861F" d="M336.4,127.3c0-10.8,0-21.6,0-32.4c0-4.7,0-9.4,0-14.1c0-0.7,4.2-0.3,5-0.3c0.3,0,0.1,6.4,0.1,7.3
		c1.1-0.7,1.9-2.9,3-4c1.6-1.7,3.5-3,5.8-3.7c5-1.4,11.2-0.8,15.4,2.4c5.6,4.3,5.9,11.4,5.9,17.9c0,6.4,0,12.7,0,19.1
		c0,2.3,0,4.5,0,6.8c0,2-2.4,1-4.1,1c-1.7,0-1.1-0.7-1.1-2.3c0-2.9,0-5.8,0-8.7c0-5.8,0-11.6,0-17.3c0-8.2-3-15-12.2-15
		c-8,0-12.7,4.8-12.7,12.4c0,7.4,0,14.7,0,22.1c0,2.7,0,5.4,0,8.1C341.6,128.2,337.7,127.3,336.4,127.3z"/>
	<path fill="#F6861F" d="M444.2,127.3c0-20.2,0-40.5,0-60.7c0-3.5,0.4-2.6,4-2.6c5.9,0,11.8,0,17.7,0c8.6,0,15.8,3.7,17.6,12.7
		c2,9.8-1.8,20.9-12.7,22.6c-5.3,0.8-10.9,0.3-16.2,0.3c-0.3,0-5,0-5,0c0,1.5,0,3.1,0,4.6c0,5.9,0,11.9,0,17.8c0,1.7,0,3.5,0,5.2
		C449.6,127.5,444.8,127.3,444.2,127.3z M449.6,94.9c3.5,0,7.1,0,10.6,0c4,0,8.9,0.6,12.6-1.2c5.4-2.6,5.7-8.8,5.5-14
		c0-7.4-5.5-10.9-12.3-10.9c-4.3,0-8.6,0-12.9,0c-3.6,0-3.5-0.5-3.5,3C449.6,79.5,449.6,87.2,449.6,94.9z"/>
	<path fill="#F6861F" d="M499.8,122.8c5.1,0,10.3,0,15.4,0c0.9,0,2.2,0.5,2.2-0.6c0-2,0-4,0-6c0-6.6,0-13.1,0-19.7
		c0-2.6,0-5.3,0-7.9c0-0.5,0.4-3.2,0-3.6c-0.6-0.6-4.8,0-5.6,0c-3.3,0-6.6,0-9.9,0c-2.6,0-2.2,0-2.2-2.6c0-2.5,0.4-1.9,2.8-1.9
		c6.1,0,12.1,0,18.2,0c0.8,0,1.8-0.4,1.8,0.5c0,1.8,0,3.6,0,5.5c0,10.8,0,21.7,0,32.5c0,3.5-0.8,3.8,2.9,3.8c2.8,0,5.7,0,8.5,0
		c0.8,0,4.4-0.5,5,0c0.3,0.3-0.1,4.5-0.1,4.5c-1.2,0-2.3,0-3.5,0c-5.3,0-10.7,0-16,0s-10.7,0-16,0c-1.2,0-2.3,0-3.5,0
		C499.7,127.3,499.8,123.3,499.8,122.8z M519.9,68c-6,0-6-8.4,0-8.4C526,59.6,526,68,519.9,68z"/>
	<path fill="#F6861F" d="M554.9,60.2c0.5,0,5.2,0,5.2,0c0,0.9,0,1.8,0,2.7c0,5.1,0,10.2,0,15.3c0,8.8,0,17.5,0,26.3
		c2.7-0.8,5.8-5,8-6.9c2-1.8,4-3.6,6.1-5.5c3.7-3.4,7.5-6.7,11.2-10.1c2.4-2.2,4.8-1.5,8.1-1.5c-4.1,3.7-8.1,7.4-12.2,11.1
		c-2.3,2.1-4.5,4.1-6.8,6.2c-1.2,1.1-1.2,0.9-0.2,2.2c7.2,9.1,14.3,18.2,21.5,27.3c-1.7,0-5.7,0.9-6.9-0.5c-2.2-2.8-4.3-5.5-6.5-8.3
		c-4.3-5.5-8.7-11.1-13-16.6c-1.5,1.3-2.9,2.6-4.4,3.9c-1.3,1.1-4.3,2.8-5,4.4c-0.5,1.1,0,3.7,0,4.9c0,3.1,0,6.2,0,9.4
		c0,1.7,0.7,2.8-1.1,2.8c-0.7,0-4.1,0.5-4.1-0.3c0-3,0-5.9,0-8.9C554.9,98.8,554.9,79.5,554.9,60.2z"/>
	<path fill="#F6861F" d="M626.9,128.4c-8.2,0-15.9-2.9-21.3-9.2c1-0.9,2.1-1.8,3.1-2.7c0.7-0.6,4.6,3.5,5.8,4.3
		c5.5,3.4,13.2,4.2,19.3,2.3c5.2-1.6,9.8-7.9,5.7-13.2c-2.8-3.5-8.2-3.5-12.3-4.1c-4.8-0.7-9.9-1-14.1-3.6
		c-5.5-3.4-6.6-11.2-3.1-16.4c7.4-11,26.8-7.1,34.7,1c-0.9,0.8-1.7,1.6-2.6,2.4c-1.5,1.4-1.8-0.2-3.2-1.4c-4.3-3.7-10.5-4.5-15.9-4
		c-5,0.5-9.8,3-9.8,8.6c0,5.8,5.2,7.4,10.1,8.1c7.1,1,17.2,1.1,21.3,7.8c2.8,4.5,1.4,11.1-2.1,14.8
		C638.5,127.3,632.3,128.4,626.9,128.4z"/>
	<path fill="#F6861F" d="M681,128.4c-10.3,0-18-6.4-20.2-16.4c-2.1-9.7-0.8-22.5,7.8-28.8c9.3-6.9,23.5-4.1,29,6.1
		c2.4,4.4,3,9.3,3,14.2c0,1.9-0.2,1.5-1.9,1.5c-10.8,0-21.5,0-32.3,0c-1.7,0-0.9,2.2-0.9,3.6c0.2,4.6,1.9,9.3,5.6,12.3
		c8,6.4,20.4,2.8,24.4-6.3c1.1,0.7,2.3,1.4,3.4,2.1c1.3,0.8-1.9,4.5-2.6,5.4C692.4,126.5,686.8,128.4,681,128.4z M680.6,83.8
		c-5,0-9.7,2.3-12.4,6.5c-0.6,1-4,10.7-2.6,10.7c5,0,10.1,0,15.1,0c4.7,0,9.5,0,14.2,0c1.2,0-1.4-9.2-1.9-10.1
		C690.5,86.2,685.8,83.8,680.6,83.8z"/>
	<path fill="#F6861F" d="M715.1,122.8c5.1,0,10.3,0,15.4,0c0.9,0,1.7,0.4,1.7-0.6c0-1.5,0-3,0-4.5c0-12.5,0-25.1,0-37.6
		c0-4.6,0-9.2,0-13.8c0-0.3,0.2-1.5-0.2-1.5c-2.6,0-5.3,0-7.9,0c-2.7,0-5.4,0-8.2,0c-1.3,0-1.4-3.9-0.8-4.5c0.6-0.5,4.1,0,4.8,0
		c3.5,0,6.9,0,10.4,0c2.3,0,7-1.5,7,1.4c0,4.4,0,8.7,0,13.1c0,13,0,25.9,0,38.9c0,3,0,6.1,0,9.1c0,0.1,13,0.1,14.2,0.1
		c2.4,0,2.8-0.6,2.8,1.9c0,2.1,0.6,2.6-1.4,2.6c-5.5,0-11,0-16.5,0c-5.7,0-11.5,0-17.2,0c-1.3,0-2.6,0-3.9,0
		C714.9,127.3,715.1,123.5,715.1,122.8z"/>
</g>
</svg>
